<svg width="48" height="48" viewBox="0 0 48 48" fill="none" xmlns="http://www.w3.org/2000/svg">
<g clip-path="url(#clip0)">
<path fill-rule="evenodd" clip-rule="evenodd" d="M42.0958 0C45.3254 0 47.9473 2.62205 47.9473 5.85158V42.0432C47.9473 45.2727 45.3253 47.8947 42.0958 47.8947H5.90419C2.67466 47.8947 0.0526123 45.2727 0.0526123 42.0432V5.85158C0.0526123 2.62205 2.67457 0 5.90419 0H42.0958V0ZM24 7.5771C19.5541 7.5771 18.9966 7.5959 17.2506 7.6756C15.5081 7.75511 14.3181 8.03182 13.2768 8.43658C12.2003 8.85491 11.2874 9.41468 10.3773 10.3247C9.4672 11.2348 8.90743 12.1478 8.4891 13.2242C8.08443 14.2655 7.80772 15.4555 7.72812 17.198C7.64851 18.944 7.62971 19.5015 7.62971 23.9474C7.62971 28.3933 7.64851 28.9508 7.72812 30.6968C7.80772 32.4392 8.08443 33.6292 8.4891 34.6706C8.90743 35.747 9.4672 36.66 10.3773 37.5701C11.2874 38.4801 12.2003 39.0399 13.2768 39.4582C14.3181 39.8629 15.5081 40.1396 17.2506 40.2191C18.9966 40.2988 19.5541 40.3176 24 40.3176C28.4459 40.3176 29.0034 40.2988 30.7494 40.2191C32.4918 40.1396 33.6818 39.8629 34.7232 39.4582C35.7996 39.0399 36.7126 38.4801 37.6227 37.5701C38.5328 36.66 39.0925 35.747 39.5109 34.6706C39.9155 33.6292 40.1922 32.4392 40.2717 30.6968C40.3514 28.9508 40.3703 28.3933 40.3703 23.9474C40.3703 19.5015 40.3514 18.944 40.2717 17.198C40.1922 15.4555 39.9155 14.2655 39.5109 13.2242C39.0925 12.1478 38.5328 11.2348 37.6227 10.3247C36.7126 9.41468 35.7996 8.85491 34.7232 8.43658C33.6818 8.03182 32.4918 7.75511 30.7494 7.6756C29.0034 7.5959 28.4459 7.5771 24 7.5771ZM24 10.5267C28.371 10.5267 28.8888 10.5434 30.615 10.6222C32.211 10.695 33.0778 10.9617 33.6547 11.1858C34.4189 11.4828 34.9641 11.8376 35.537 12.4103C36.1099 12.9832 36.4646 13.5286 36.7616 14.2926C36.9857 14.8695 37.2524 15.7363 37.3252 17.3324C37.404 19.0586 37.4207 19.5763 37.4207 23.9474C37.4207 28.3184 37.404 28.8362 37.3252 30.5624C37.2524 32.1584 36.9857 33.0252 36.7616 33.6021C36.4646 34.3662 36.1099 34.9115 35.537 35.4844C34.9641 36.0573 34.4189 36.412 33.6547 36.709C33.0778 36.9331 32.211 37.1998 30.615 37.2726C28.8891 37.3513 28.3713 37.3681 24 37.3681C19.6287 37.3681 19.111 37.3513 17.385 37.2726C15.7889 37.1998 14.9222 36.9331 14.3453 36.709C13.5811 36.412 13.0358 36.0573 12.463 35.4844C11.8901 34.9115 11.5353 34.3662 11.2384 33.6021C11.0142 33.0252 10.7475 32.1584 10.6747 30.5624C10.5959 28.8362 10.5793 28.3184 10.5793 23.9474C10.5793 19.5763 10.5959 19.0586 10.6747 17.3324C10.7475 15.7363 11.0142 14.8695 11.2384 14.2926C11.5353 13.5286 11.8901 12.9832 12.463 12.4103C13.0358 11.8376 13.5811 11.4828 14.3453 11.1858C14.9222 10.9617 15.7889 10.695 17.385 10.6222C19.1112 10.5434 19.6289 10.5267 24 10.5267ZM24 15.541C19.3573 15.541 15.5936 19.3047 15.5936 23.9474C15.5936 28.5901 19.3573 32.3537 24 32.3537C28.6427 32.3537 32.4063 28.5901 32.4063 23.9474C32.4063 19.3047 28.6427 15.541 24 15.541ZM24 29.4041C20.9863 29.4041 18.5433 26.9611 18.5433 23.9474C18.5433 20.9336 20.9863 18.4906 24 18.4906C27.0137 18.4906 29.4567 20.9336 29.4567 23.9474C29.4567 26.9611 27.0137 29.4041 24 29.4041ZM34.703 15.2089C34.703 16.2938 33.8234 17.1733 32.7384 17.1733C31.6536 17.1733 30.7741 16.2938 30.7741 15.2089C30.7741 14.124 31.6536 13.2445 32.7384 13.2445C33.8234 13.2445 34.703 14.124 34.703 15.2089Z" fill="#6F3F30"/>
</g>
<defs>
<clipPath id="clip0">
<rect width="47.8947" height="47.8947" fill="white" transform="translate(0.0526123)"/>
</clipPath>
</defs>
</svg>
