<svg width="48" height="48" viewBox="0 0 48 48" fill="none" xmlns="http://www.w3.org/2000/svg">
<g clip-path="url(#clip0)">
<path d="M12.3908 38.1661C12.2255 38.3532 12.0166 38.322 11.7672 38.0726C11.4959 37.8449 11.4553 37.6454 11.6424 37.4801C11.8077 37.293 12.0166 37.3242 12.2661 37.5737C12.5155 37.8013 12.556 38.0009 12.3908 38.1661ZM11.0812 36.264C11.2683 36.5135 11.2683 36.7099 11.0812 36.8565C10.9159 36.9812 10.7382 36.9095 10.5511 36.6382C10.364 36.3669 10.364 36.1799 10.5511 36.077C10.7382 35.9304 10.9159 35.9928 11.0812 36.264ZM9.17909 34.3932C9.07619 34.5397 8.939 34.5584 8.77373 34.4555C8.56482 34.3526 8.4931 34.2279 8.55546 34.0813C8.61783 33.9784 8.75191 33.9566 8.96082 34.019C9.16974 34.1219 9.24146 34.2466 9.17909 34.3932ZM10.1457 35.4533C10.021 35.5999 9.85573 35.5687 9.64682 35.3598C9.45973 35.1322 9.4379 34.9638 9.58445 34.8609C9.70918 34.7362 9.87444 34.7673 10.0834 34.9544C10.2704 35.1821 10.2923 35.3504 10.1457 35.4533ZM14.1681 38.9457C14.0839 39.1951 13.8875 39.2575 13.5757 39.1327C13.2233 39.0486 13.0861 38.8926 13.1703 38.665C13.2545 38.4374 13.451 38.3626 13.7628 38.4468C14.0964 38.5497 14.2305 38.718 14.1681 38.9457ZM16.1326 39.1016C16.1326 39.3292 15.9673 39.4446 15.6337 39.4446C15.2813 39.4851 15.1036 39.3728 15.1036 39.1016C15.1036 38.8739 15.2688 38.7586 15.6025 38.7586C15.9548 38.718 16.1326 38.8303 16.1326 39.1016ZM17.9411 38.7897C17.9816 38.9987 17.8382 39.1421 17.5045 39.2263C17.1709 39.3105 16.9838 39.2263 16.9433 38.9768C16.9027 38.7274 17.0462 38.5715 17.3798 38.5091C17.7135 38.4686 17.9006 38.5621 17.9411 38.7897ZM48 8.98026V38.9145C48 41.3872 47.1207 43.5044 45.3652 45.2599C43.6097 47.0154 41.4925 47.8947 39.0198 47.8947H32.0351C31.7015 47.8947 31.4489 47.8854 31.2712 47.8636C31.0934 47.8417 30.8908 47.7918 30.6631 47.7076C30.4355 47.6235 30.2671 47.4738 30.1642 47.2555C30.0613 47.0372 30.0083 46.7504 30.0083 46.398V38.9457C30.0083 36.9282 29.4689 35.4533 28.3869 34.5179C29.5718 34.3932 30.6382 34.2061 31.583 33.9566C32.5278 33.7072 33.5069 33.3018 34.514 32.7405C35.5212 32.1793 36.3631 31.487 37.0397 30.667C37.7164 29.8469 38.2652 28.7556 38.6924 27.3929C39.1195 26.0303 39.3316 24.4681 39.3316 22.7001C39.3316 20.1838 38.5115 18.0447 36.8682 16.2767C37.6384 14.384 37.5542 12.2637 36.6188 9.91571C36.0357 9.72862 35.1938 9.84399 34.0931 10.2587C32.9924 10.6734 32.0351 11.1318 31.2244 11.6307L30.0395 12.379C28.1062 11.8396 26.1106 11.5683 24.0527 11.5683C21.9947 11.5683 19.9991 11.8396 18.0658 12.379C17.7322 12.1514 17.2925 11.8708 16.7406 11.5371C16.1887 11.2035 15.3218 10.8044 14.1369 10.3367C12.9521 9.86894 12.0571 9.72862 11.4553 9.91571C10.5417 12.2637 10.4669 14.384 11.2371 16.2767C9.59381 18.0447 8.77373 20.1838 8.77373 22.7001C8.77373 24.4681 8.98577 26.0272 9.41295 27.3773C9.84014 28.7275 10.3858 29.8188 11.05 30.6514C11.7141 31.4839 12.5529 32.1793 13.5601 32.7405C14.5673 33.3018 15.5463 33.7072 16.4911 33.9566C17.4359 34.2061 18.5024 34.3932 19.6872 34.5179C18.8547 35.2662 18.3464 36.3358 18.1594 37.7296C17.7228 37.9385 17.2551 38.0944 16.7562 38.1973C16.2573 38.3002 15.6648 38.3532 14.9788 38.3532C14.2929 38.3532 13.6131 38.1287 12.9365 37.6828C12.2598 37.2369 11.683 36.5852 11.2059 35.734C10.8099 35.0698 10.3079 34.5272 9.69359 34.1125C9.07931 33.6978 8.56482 33.4484 8.1501 33.3642L7.52648 33.2706C7.08993 33.2706 6.78747 33.3174 6.62221 33.4109C6.45695 33.5045 6.40394 33.623 6.46631 33.7695C6.52867 33.9161 6.62221 34.0595 6.74694 34.2061C6.87166 34.3526 7.00574 34.4774 7.1523 34.5802L7.37057 34.7362C7.82894 34.9451 8.28107 35.338 8.72696 35.9211C9.17286 36.5041 9.50026 37.0342 9.70918 37.5113L10.021 38.2285C10.2923 39.0174 10.7475 39.6566 11.393 40.1461C12.0384 40.6357 12.7338 40.9475 13.4821 41.0816C14.2305 41.2157 14.9539 41.2905 15.6492 41.2999C16.3446 41.3092 16.9215 41.2749 17.3798 41.1907L18.097 41.066C18.097 41.8549 18.1032 42.9275 18.1126 44.2777C18.1219 45.6278 18.1282 46.3357 18.1282 46.398C18.1282 46.8564 18.0128 47.2025 17.7852 47.4426C17.5576 47.6827 17.3268 47.8168 17.0992 47.848C16.8716 47.8791 16.5286 47.8947 16.0702 47.8947H9.08555C6.61286 47.8947 4.49564 47.0154 2.74012 45.2599C0.984603 43.5044 0.105286 41.3872 0.105286 38.9145V8.98026C0.105286 6.50757 0.984603 4.39035 2.74012 2.63483C4.49564 0.879317 6.61286 0 9.08555 0H39.0198C41.4925 0 43.6097 0.879317 45.3652 2.63483C47.1207 4.39035 48 6.50757 48 8.98026Z" fill="#6F3F30"/>
</g>
<defs>
<clipPath id="clip0">
<rect width="47.8947" height="47.8947" fill="white" transform="translate(0.105286)"/>
</clipPath>
</defs>
</svg>
