<svg width="48" height="48" viewBox="0 0 48 48" fill="none" xmlns="http://www.w3.org/2000/svg">
<g clip-path="url(#clip0)">
<path fill-rule="evenodd" clip-rule="evenodd" d="M42.0432 0C45.2728 0 47.8947 2.62205 47.8947 5.85158V42.0432C47.8947 45.2727 45.2727 47.8947 42.0432 47.8947H32.0837V29.8486H38.3137L39.4991 22.1199H32.0837V17.1043C32.0837 14.9899 33.1195 12.9289 36.441 12.9289H39.8125V6.34895C39.8125 6.34895 36.7527 5.82679 33.8273 5.82679C27.72 5.82679 23.7283 9.52825 23.7283 16.2293V22.1199H16.9395V29.8486H23.7283V47.8947H5.85158C2.62205 47.8947 0 45.2727 0 42.0432V5.85158C0 2.62205 2.62196 0 5.85158 0H42.0432V0Z" fill="#6F3F30"/>
</g>
<defs>
<clipPath id="clip0">
<rect width="47.8947" height="47.8947" fill="white"/>
</clipPath>
</defs>
</svg>
